<?xml version="1.0" standalone="no"?>
<!DOCTYPE svg PUBLIC "-//W3C//DTD SVG 20010904//EN"
 "http://www.w3.org/TR/2001/REC-SVG-20010904/DTD/svg10.dtd">
<svg version="1.0" xmlns="http://www.w3.org/2000/svg"
 width="512.000000pt" height="512.000000pt" viewBox="0 0 512.000000 512.000000"
 preserveAspectRatio="xMidYMid meet">
<metadata>
Created by potrace 1.11, written by Peter Selinger 2001-2013
</metadata>
<g transform="translate(0.000000,512.000000) scale(0.100000,-0.100000)"
fill="#000000" stroke="none">
<path d="M1290 4280 c-572 -69 -1058 -438 -1181 -895 -32 -117 -32 -313 -2
-411 51 -161 164 -269 335 -318 52 -16 228 -37 237 -29 2 1 -10 23 -28 48 -46
64 -86 157 -107 250 -22 96 -25 347 -5 440 58 277 184 451 416 576 66 36 74
38 79 22 3 -10 149 -718 325 -1573 177 -855 323 -1565 326 -1577 l5 -23 335 0
c309 0 334 1 339 18 3 9 109 540 237 1180 128 640 235 1158 239 1150 4 -7 110
-538 236 -1181 l228 -1167 352 0 352 0 22 118 c12 64 157 846 323 1737 l302
1620 -174 3 c-95 1 -176 0 -179 -3 -3 -3 -108 -640 -233 -1417 -126 -776 -230
-1417 -232 -1422 -2 -6 -13 36 -24 94 -11 58 -136 700 -279 1428 l-259 1322
-296 0 -296 0 -5 -32 c-74 -484 -455 -2805 -459 -2800 -4 4 -130 643 -282
1420 -151 777 -277 1416 -280 1419 -10 10 -291 12 -367 3z"/>
</g>
</svg>
