<?xml version="1.0" standalone="no"?>
<!DOCTYPE svg PUBLIC "-//W3C//DTD SVG 20010904//EN"
 "http://www.w3.org/TR/2001/REC-SVG-20010904/DTD/svg10.dtd">
<svg version="1.0" xmlns="http://www.w3.org/2000/svg"
 width="558.000000pt" height="558.000000pt" viewBox="0 0 558.000000 558.000000"
 preserveAspectRatio="xMidYMid meet">
<metadata>
Created by potrace 1.11, written by Peter Selinger 2001-2013
</metadata>
<g transform="translate(0.000000,558.000000) scale(0.100000,-0.100000)"
fill="#000000" stroke="none">
<path d="M0 2790 l0 -2790 2790 0 2790 0 0 2790 0 2790 -2790 0 -2790 0 0
-2790z m2926 1862 l121 -57 183 -500 c101 -275 194 -528 207 -563 l23 -62
-202 2 -201 3 -239 650 c-131 358 -241 660 -244 673 -6 20 3 18 112 -34 66
-30 174 -81 240 -112z m-182 -523 c123 -338 234 -640 246 -671 l21 -58 742 0
741 0 -597 -445 c-340 -254 -594 -451 -592 -458 13 -33 454 -1481 452 -1483
-1 -1 -283 205 -627 456 l-625 458 -30 -22 c-275 -198 -1180 -834 -1183 -831
-2 2 92 320 209 707 116 386 212 708 213 715 0 6 -269 211 -599 455 l-600 443
744 5 743 5 239 685 c132 377 242 692 245 700 9 20 1 41 258 -661z m1143
-1893 c11 -11 467 -1475 461 -1481 -2 -2 -113 54 -247 123 l-245 127 -212 705
c-117 388 -216 717 -219 732 -6 26 2 23 222 -84 125 -60 233 -115 240 -122z"/>
</g>
</svg>
